<svg xmlns="http://www.w3.org/2000/svg" xmlns:svg="http://www.w3.org/2000/svg" id="svg20" width="410" height="404" fill="none" version="1.1" viewBox="0 0 410 404"><metadata id="metadata24"/><path id="path2" fill="url(#paint0_linear)" d="M399.641 59.5246L215.643 388.545C211.844 395.338 202.084 395.378 198.228 388.618L10.5817 59.5563C6.38087 52.1896 12.6802 43.2665 21.0281 44.7586L205.223 77.6824C206.398 77.8924 207.601 77.8904 208.776 77.6763L389.119 44.8058C397.439 43.2894 403.768 52.1434 399.641 59.5246Z"/><defs id="defs18"><linearGradient id="paint0_linear" x1="6" x2="235" y1="33" y2="344" gradientUnits="userSpaceOnUse"><stop id="stop6" stop-color="#41D1FF"/><stop id="stop8" offset="1" stop-color="#BD34FE"/></linearGradient><linearGradient id="paint1_linear" x1="194.651" x2="236.076" y1="8.818" y2="292.989" gradientUnits="userSpaceOnUse"><stop id="stop11" stop-color="#FFEA83"/><stop id="stop13" offset=".083" stop-color="#FFDD35"/><stop id="stop15" offset="1" stop-color="#FFA800"/></linearGradient></defs><path id="path4" fill="url(#paint1_linear)" d="M292.965 1.5744L156.801 28.2552C154.563 28.6937 152.906 30.5903 152.771 32.8664L144.395 174.33C144.198 177.662 147.258 180.248 150.51 179.498L188.42 170.749C191.967 169.931 195.172 173.055 194.443 176.622L183.18 231.775C182.422 235.487 185.907 238.661 189.532 237.56L212.947 230.446C216.577 229.344 220.065 232.527 219.297 236.242L201.398 322.875C200.278 328.294 207.486 331.249 210.492 326.603L212.5 323.5L323.454 102.072C325.312 98.3645 322.108 94.137 318.036 94.9228L279.014 102.454C275.347 103.161 272.227 99.746 273.262 96.1583L298.731 7.86689C299.767 4.27314 296.636 0.855181 292.965 1.5744Z"/><g id="layer1"><g id="g8" transform="matrix(0.15789659,0,0,0.15890333,54.892928,275.21638)"><path id="path2-1" fill="#3d3d3d" fill-opacity="1" stroke-linejoin="round" stroke-width=".2" d="m 1436.62,603.304 56.39,-142.599 h 162.82 L 1578.56,244.39 1675.2,5.28336e-4 1952,734.933 h -204.13 l -47.3,-131.629 z" style="fill:#3e3e3e;fill-opacity:1"/><path id="path4-4" fill="#5a0fc8" fill-opacity="1" stroke-linejoin="round" stroke-width=".2" d="M 1262.47,734.935 1558.79,0.00156593 1362.34,0.0025425 1159.64,474.933 1015.5,0.00351906 H 864.499 L 709.731,474.933 600.585,258.517 501.812,562.819 602.096,734.935 h 193.331 l 139.857,-425.91 133.346,425.91 z" style="fill:#2e859c;fill-opacity:1"/><path id="path6" fill="#3d3d3d" fill-opacity="1" stroke-linejoin="round" stroke-width=".2" d="m 186.476,482.643 h 121.003 c 36.654,0 69.293,-4.091 97.917,-12.273 l 31.293,-96.408 87.459,-269.446 C 517.484,93.9535 509.876,83.9667 501.324,74.5569 456.419,24.852 390.719,4.06265e-4 304.222,4.06265e-4 H -3.8147e-6 V 734.933 H 186.476 Z M 346.642,169.079 c 17.54,17.653 26.309,41.276 26.309,70.871 0,29.822 -7.713,53.474 -23.138,70.956 -16.91,19.425 -48.047,29.137 -93.409,29.137 H 186.476 V 142.598 h 70.442 c 42.277,0 72.185,8.827 89.724,26.481 z" style="fill:#3e3e3e;fill-opacity:1"/></g></g></svg>